<svg style="display:none"><symbol viewBox="0 0 485.211 485.211" id="icon-contact--mail"><path d="M485.211 363.906c0 10.637-2.992 20.498-7.785 29.174L324.225 221.67l151.54-132.584c5.895 9.355 9.446 20.344 9.446 32.219v242.601zM242.606 252.793l210.863-184.5c-8.653-4.737-18.397-7.642-28.908-7.642H60.651c-10.524 0-20.271 2.905-28.889 7.642l210.844 184.5zm58.787-11.162l-48.809 42.734a15.145 15.145 0 0 1-9.978 3.729c-3.57 0-7.125-1.242-9.98-3.729l-48.82-42.736L28.667 415.23c9.299 5.834 20.197 9.329 31.983 9.329h363.911c11.784 0 22.687-3.495 31.983-9.329L301.393 241.631zM9.448 89.085C3.554 98.44 0 109.429 0 121.305v242.602c0 10.637 2.978 20.498 7.789 29.174l153.183-171.44L9.448 89.085z"/></symbol><symbol viewBox="0 0 35 35" id="icon-contact--phone"><path d="M25.302 0H9.698a2.37 2.37 0 0 0-2.364 2.364v30.271A2.371 2.371 0 0 0 9.698 35h15.604a2.37 2.37 0 0 0 2.364-2.364V2.364A2.37 2.37 0 0 0 25.302 0zM15.004 1.704h4.992a.286.286 0 0 1 0 .573h-4.992a.286.286 0 1 1 0-.573zM17.5 33.818a1.182 1.182 0 1 1 0-2.364 1.182 1.182 0 0 1 0 2.364zm8.521-3.193H8.979V3.749h17.042v26.876z"/></symbol><symbol viewBox="0 0 181.352 181.352" id="icon-phone-handset"><path d="M169.393 167.37l-14.919 9.848c-9.604 6.614-50.531 14.049-106.211-53.404C-5.415 58.873 9.934 22.86 17.134 14.555L29.523 1.678c2.921-2.491 7.328-2.198 9.839.811l32.583 38.543.02.02c2.384 2.824 2.306 7.22-.83 9.868v.029l-14.44 10.415c-5.716 5.667-.733 14.587 5.11 23.204l27.786 32.808c12.926 12.477 20.009 18.241 26.194 14.118l12.008-13.395c2.941-2.472 7.328-2.169 9.839.821l32.603 38.543v.02c2.372 2.833 2.284 7.22-.842 9.887z"/></symbol><symbol viewBox="0 0 446.536 446.536" id="icon-pricing--pencil"><path d="M282.488 68.589L351.077 0l95.458 95.458-68.589 68.589-95.458-95.458zM.001 446.536l117.522-33.799L33.8 329.014zm144.603-49.143l-95.458-95.458 212.13-212.13 95.458 95.458-212.13 212.13z"/></symbol><symbol viewBox="0 0 469.038 469.038" id="icon-pricing--plane"><path d="M465.023 4.079c-3.9-3.9-9.9-5-14.9-2.8l-442 193.7c-4.7 2.1-7.8 6.6-8.1 11.7s2.4 9.9 6.8 12.4l154.1 87.4 91.5 155.7c2.4 4.1 6.9 6.7 11.6 6.7h.8c5.1-.3 9.5-3.4 11.6-8.1l191.5-441.8c2.2-5.1 1.1-11-2.9-14.9zm-70.3 50.9l-226.2 224.7-124.9-70.8 351.1-153.9zm-132.5 370.6l-74.5-126.9 227.5-226-153 352.9z"/></symbol><symbol viewBox="0 0 894.438 894.437" id="icon-pricing--portfolio"><path d="M387.426 632.607H55a84.86 84.86 0 0 1-22.711-3.104v159.463c0 30.375 24.625 55 55 55h719.859c30.375 0 55-24.625 55-55V629.501a84.785 84.785 0 0 1-22.711 3.104H507.01c.019.437.033.873.033 1.313v35.926c0 16.568-13.433 30-30 30h-59.65c-16.567 0-30-13.432-30-30v-35.926c0-.44.015-.876.033-1.311zM0 220.765v326.842c0 22.273 13.249 41.441 32.289 50.09A54.76 54.76 0 0 0 55 602.607h784.438a54.788 54.788 0 0 0 22.711-4.91c19.039-8.647 32.289-27.815 32.289-50.09V220.765c0-30.376-24.625-55-55-55h-195.22v-55.293c0-33.084-26.916-60-60-60h-274c-33.084 0-60 26.916-60 60v55.293H55c-30.376 0-55 24.624-55 55zm310.218-70v-40.293h274l.006 25.293.005 15 .004 15H310.218v-15z"/></symbol><symbol viewBox="0 0 96.124 96.123" id="icon-social--fb"><path d="M72.089.02L59.624 0C45.62 0 36.57 9.285 36.57 23.656v10.907H24.037a1.96 1.96 0 0 0-1.96 1.961v15.803a1.96 1.96 0 0 0 1.96 1.96H36.57v39.876a1.96 1.96 0 0 0 1.96 1.96h16.352a1.96 1.96 0 0 0 1.96-1.96V54.287h14.654a1.96 1.96 0 0 0 1.96-1.96l.006-15.803a1.963 1.963 0 0 0-1.961-1.961H56.842v-9.246c0-4.444 1.059-6.7 6.848-6.7l8.397-.003a1.96 1.96 0 0 0 1.959-1.96V1.98A1.96 1.96 0 0 0 72.089.02z"/></symbol><symbol viewBox="0 0 56.693 56.693" id="icon-social--g+"><path d="M52.218 25.852h-7.512v-7.51c0-.573-.465-1.039-1.037-1.039H41.53a1.04 1.04 0 0 0-1.041 1.039v7.51h-7.512c-.572 0-1.039.467-1.039 1.041v2.139a1.04 1.04 0 0 0 1.039 1.039h7.512v7.514a1.04 1.04 0 0 0 1.041 1.039h2.139c.572 0 1.037-.465 1.037-1.039V30.07h7.512a1.04 1.04 0 0 0 1.039-1.039v-2.139a1.04 1.04 0 0 0-1.039-1.04z"/><path d="M26.974 32.438c-1.58-1.119-3.016-2.76-3.041-3.264 0-.918.082-1.357 2.141-2.961 2.662-2.084 4.128-4.824 4.128-7.719 0-2.625-.802-4.957-2.167-6.595h1.059c.219 0 .434-.068.609-.196l2.955-2.141c.367-.263.521-.732.381-1.161a1.042 1.042 0 0 0-.988-.72H18.835c-1.446 0-2.915.255-4.357.751-4.816 1.661-8.184 5.765-8.184 9.978 0 5.969 4.624 10.493 10.805 10.635a5.623 5.623 0 0 0-.182 1.396c0 .92.233 1.791.713 2.633h-.17c-5.892 0-11.21 2.891-13.229 7.193-.526 1.119-.794 2.25-.794 3.367a6.33 6.33 0 0 0 .826 3.113c1.269 2.27 3.994 4.031 7.677 4.961 1.901.48 3.944.725 6.065.725 1.906 0 3.723-.246 5.403-.732 5.238-1.521 8.625-5.377 8.625-9.828-.001-4.271-1.374-6.828-5.059-9.435zm-16.691 9.777c0-3.107 3.947-5.832 8.446-5.832h.121c.979.012 1.934.156 2.834.432.309.213.607.416.893.611 2.084 1.42 3.461 2.357 3.844 3.861.09.379.135.758.135 1.125 0 3.869-2.885 5.83-8.578 5.83-4.315 0-7.695-2.646-7.695-6.027zm4.094-29.357c.703-.803 1.624-1.227 2.658-1.227l.117.002c2.921.086 5.716 3.341 6.23 7.256.289 2.192-.199 4.253-1.301 5.509-.705.805-1.613 1.229-2.689 1.229h-.049c-2.861-.088-5.716-3.467-6.227-7.377-.287-2.186.173-4.151 1.261-5.392z"/></symbol><symbol viewBox="0 0 56.693 56.693" id="icon-social--instagram"><path d="M43.414 4.831H13c-5.283 0-9.581 4.297-9.581 9.58v30.415c0 5.283 4.298 9.58 9.581 9.58h30.415c5.283 0 9.58-4.297 9.58-9.58V14.41c-.001-5.283-4.298-9.579-9.581-9.579zm2.748 5.713l1.096-.004v8.403l-8.375.027-.029-8.402 7.308-.024zM21.131 24.53c1.588-2.197 4.164-3.638 7.076-3.638s5.488 1.441 7.074 3.638a8.677 8.677 0 0 1 1.652 5.088c0 4.811-3.918 8.725-8.727 8.725-4.812 0-8.726-3.914-8.726-8.725a8.683 8.683 0 0 1 1.651-5.088zm27.033 20.295a4.754 4.754 0 0 1-4.75 4.75H13a4.755 4.755 0 0 1-4.751-4.75V24.53h7.4a13.483 13.483 0 0 0-.998 5.088c0 7.473 6.08 13.557 13.556 13.557 7.475 0 13.555-6.084 13.555-13.557 0-1.799-.361-3.516-1-5.088h7.402v20.295z"/></symbol><symbol viewBox="0 0 56.693 56.693" id="icon-social--pin"><path d="M30.374 4.622c-13.586 0-20.437 9.74-20.437 17.864 0 4.918 1.862 9.293 5.855 10.922.655.27 1.242.01 1.432-.715.132-.5.445-1.766.584-2.295.191-.717.117-.967-.412-1.594-1.151-1.357-1.888-3.115-1.888-5.607 0-7.226 5.407-13.695 14.079-13.695 7.679 0 11.898 4.692 11.898 10.957 0 8.246-3.649 15.205-9.065 15.205-2.992 0-5.23-2.473-4.514-5.508.859-3.623 2.524-7.531 2.524-10.148 0-2.34-1.257-4.292-3.856-4.292-3.058 0-5.515 3.164-5.515 7.401 0 2.699.912 4.525.912 4.525l-3.678 15.582c-1.092 4.625-.164 10.293-.085 10.865.046.34.482.422.68.166.281-.369 3.925-4.865 5.162-9.359.351-1.271 2.011-7.859 2.011-7.859.994 1.896 3.898 3.562 6.986 3.562 9.191 0 15.428-8.379 15.428-19.595.001-8.483-7.183-16.382-18.101-16.382z"/></symbol><symbol viewBox="0 0 56.693 56.693" id="icon-social--rss"><path d="M3.428 31.085c6.19 0 12.009 2.418 16.382 6.816 4.381 4.398 6.793 10.256 6.793 16.492h9.539c0-18.113-14.676-32.848-32.714-32.848v9.54zm.015-16.911c22.061 0 40.01 18.047 40.01 40.231h9.539c0-27.445-22.229-49.77-49.549-49.77v9.539zm13.191 33.567a6.608 6.608 0 0 1-13.214 0 6.608 6.608 0 0 1 13.214 0z"/></symbol><symbol viewBox="0 0 430.1 430.1" id="icon-social--tumblr"><path d="M252.8 351.5c-7.2-4.2-13.9-11.5-16.5-18.6-2.7-7.1-2.3-21.5-2.3-46.4V176.2h100.3V99.5H234V0h-61.7c-2.8 22.2-7.8 40.5-15.2 54.8-7.4 14.4-17.1 26.7-29.3 36.9-12.1 10.2-31.9 18.1-48.9 23.6v60.9h58.9V327c0 19.7 2.1 34.7 6.2 45.1 4.2 10.3 11.6 20.1 22.4 29.3 10.8 9.1 23.8 16.2 39 21.2 15.2 4.9 26.9 7.4 46.8 7.4 17.4 0 33.7-1.8 48.7-5.2 15-3.5 31.8-9.6 50.3-18.2v-67.9c-21.7 14.2-43.6 21.2-65.5 21.2-12.3.2-23.3-2.7-32.9-8.4z"/></symbol><symbol viewBox="0 0 310 310" id="icon-social--twitter"><path d="M302.973 57.388a117.512 117.512 0 0 1-14.993 5.463 66.276 66.276 0 0 0 13.494-23.73 5 5 0 0 0-7.313-5.824 117.994 117.994 0 0 1-34.878 13.783c-12.381-12.098-29.197-18.983-46.581-18.983-36.695 0-66.549 29.853-66.549 66.547 0 2.89.183 5.764.545 8.598C101.163 99.244 58.83 76.863 29.76 41.204a5.001 5.001 0 0 0-8.196.642c-5.896 10.117-9.013 21.688-9.013 33.461 0 16.035 5.725 31.249 15.838 43.137a56.37 56.37 0 0 1-8.907-3.977 5 5 0 0 0-7.427 4.257c-.007.295-.007.59-.007.889 0 23.935 12.882 45.484 32.577 57.229a57.372 57.372 0 0 1-5.063-.735 4.998 4.998 0 0 0-5.699 6.437c7.29 22.76 26.059 39.501 48.749 44.605-18.819 11.787-40.34 17.961-62.932 17.961a120.4 120.4 0 0 1-14.095-.826 5 5 0 0 0-3.286 9.174c29.023 18.609 62.582 28.445 97.047 28.445 67.754 0 110.139-31.95 133.764-58.753 29.46-33.421 46.356-77.658 46.356-121.367 0-1.826-.028-3.67-.084-5.508 11.623-8.757 21.63-19.355 29.773-31.536a5 5 0 0 0-6.182-7.351z"/></symbol></svg>