<svg style="display:none"><symbol viewBox="0 0 485.211 485.211" id="icon-contact--mail"> <g> <path d="M485.211,363.906c0,10.637-2.992,20.498-7.785,29.174L324.225,221.67l151.54-132.584
		c5.895,9.355,9.446,20.344,9.446,32.219V363.906z M242.606,252.793l210.863-184.5c-8.653-4.737-18.397-7.642-28.908-7.642H60.651
		c-10.524,0-20.271,2.905-28.889,7.642L242.606,252.793z M301.393,241.631l-48.809,42.734c-2.855,2.487-6.41,3.729-9.978,3.729
		c-3.57,0-7.125-1.242-9.98-3.729l-48.82-42.736L28.667,415.23c9.299,5.834,20.197,9.329,31.983,9.329h363.911
		c11.784,0,22.687-3.495,31.983-9.329L301.393,241.631z M9.448,89.085C3.554,98.44,0,109.429,0,121.305v242.602
		c0,10.637,2.978,20.498,7.789,29.174l153.183-171.44L9.448,89.085z"/> </g>                </symbol><symbol viewBox="0 0 35 35" id="icon-contact--phone"> <g> <path d="M25.302,0H9.698c-1.3,0-2.364,1.063-2.364,2.364v30.271C7.334,33.936,8.398,35,9.698,35h15.604
		c1.3,0,2.364-1.062,2.364-2.364V2.364C27.666,1.063,26.602,0,25.302,0z M15.004,1.704h4.992c0.158,0,0.286,0.128,0.286,0.287
		c0,0.158-0.128,0.286-0.286,0.286h-4.992c-0.158,0-0.286-0.128-0.286-0.286C14.718,1.832,14.846,1.704,15.004,1.704z M17.5,33.818
		c-0.653,0-1.182-0.529-1.182-1.183s0.529-1.182,1.182-1.182s1.182,0.528,1.182,1.182S18.153,33.818,17.5,33.818z M26.021,30.625
		H8.979V3.749h17.042V30.625z"/> </g>                </symbol><symbol viewBox="0 0 250.313 250.313" id="icon-gallery-glass"> <g id="icon-gallery-glass-Search"> <path style="fill-rule:evenodd;clip-rule:evenodd;" d="M244.186,214.604l-54.379-54.378c-0.289-0.289-0.628-0.491-0.93-0.76
		c10.7-16.231,16.945-35.66,16.945-56.554C205.822,46.075,159.747,0,102.911,0S0,46.075,0,102.911
		c0,56.835,46.074,102.911,102.91,102.911c20.895,0,40.323-6.245,56.554-16.945c0.269,0.301,0.47,0.64,0.759,0.929l54.38,54.38
		c8.169,8.168,21.413,8.168,29.583,0C252.354,236.017,252.354,222.773,244.186,214.604z M102.911,170.146
		c-37.134,0-67.236-30.102-67.236-67.235c0-37.134,30.103-67.236,67.236-67.236c37.132,0,67.235,30.103,67.235,67.236
		C170.146,140.044,140.043,170.146,102.911,170.146z"/> </g>                </symbol><symbol viewBox="0 0 181.352 181.352" id="icon-phone-handset"> <g> <g> <g> <path d="M169.393,167.37l-14.919,9.848c-9.604,6.614-50.531,14.049-106.211-53.404
				C-5.415,58.873,9.934,22.86,17.134,14.555L29.523,1.678c2.921-2.491,7.328-2.198,9.839,0.811l32.583,38.543l0.02,0.02
				c2.384,2.824,2.306,7.22-0.83,9.868v0.029l-14.44,10.415c-5.716,5.667-0.733,14.587,5.11,23.204l27.786,32.808
				c12.926,12.477,20.009,18.241,26.194,14.118l12.008-13.395c2.941-2.472,7.328-2.169,9.839,0.821l32.603,38.543v0.02
				C172.607,160.316,172.519,164.703,169.393,167.37z"/> </g> </g> </g>                </symbol><symbol viewBox="0 0 446.536 446.536" id="icon-pricing--pencil"> <g> <path d="M282.488,68.589L351.077,0l95.458,95.458l-68.589,68.589L282.488,68.589z"/> <polygon points="0.001,446.536 117.523,412.737 33.8,329.014 	"/> <path d="M144.604,397.393l-95.458-95.458l212.13-212.13l95.458,95.458L144.604,397.393z"/> </g>                </symbol><symbol viewBox="0 0 469.038 469.038" id="icon-pricing--plane"> <g> <path d="M465.023,4.079c-3.9-3.9-9.9-5-14.9-2.8l-442,193.7c-4.7,2.1-7.8,6.6-8.1,11.7s2.4,9.9,6.8,12.4l154.1,87.4l91.5,155.7
		c2.4,4.1,6.9,6.7,11.6,6.7c0.3,0,0.5,0,0.8,0c5.1-0.3,9.5-3.4,11.6-8.1l191.5-441.8C470.123,13.879,469.023,7.979,465.023,4.079z
		 M394.723,54.979l-226.2,224.7l-124.9-70.8L394.723,54.979z M262.223,425.579l-74.5-126.9l227.5-226L262.223,425.579z"/> </g>                </symbol><symbol viewBox="0 0 894.438 894.437" id="icon-pricing--portfolio"> <g> <g> <g> <path d="M387.426,632.607H55c-7.866,0-15.477-1.098-22.711-3.104v159.463c0,30.375,24.625,55,55,55h719.859
				c30.375,0,55-24.625,55-55V629.501c-7.234,2.008-14.846,3.104-22.711,3.104H507.01c0.019,0.437,0.033,0.873,0.033,1.313v35.926
				c0,16.568-13.433,30-30,30h-59.65c-16.567,0-30-13.432-30-30v-35.926C387.393,633.478,387.408,633.042,387.426,632.607z"/> <path d="M0,220.765v326.842c0,22.273,13.249,41.441,32.289,50.09c6.925,3.146,14.61,4.91,22.711,4.91h784.438
				c8.103,0,15.785-1.766,22.711-4.91c19.039-8.647,32.289-27.815,32.289-50.09V220.765c0-30.376-24.625-55-55-55h-195.22v-15v-15
				v-25.293c0-33.084-26.916-60-60-60h-274c-33.084,0-60,26.916-60,60v25.293v15v15H55C24.624,165.765,0,190.389,0,220.765z
				 M310.218,150.765v-15v-25.293h274l0.006,25.293l0.005,15l0.004,15H310.218V150.765z"/> </g> </g> </g>                </symbol><symbol viewBox="0 0 56.693 56.693" id="icon-social--fb"><path d="M40.43,21.739h-7.645v-5.014c0-1.883,1.248-2.322,2.127-2.322c0.877,0,5.395,0,5.395,0V6.125l-7.43-0.029  c-8.248,0-10.125,6.174-10.125,10.125v5.518h-4.77v8.53h4.77c0,10.947,0,24.137,0,24.137h10.033c0,0,0-13.32,0-24.137h6.77  L40.43,21.739z"/></symbol><symbol viewBox="0 0 56.693 56.693" id="icon-social--g+"><g><path d="M52.218,25.852h-7.512v-7.51c0-0.573-0.465-1.039-1.037-1.039H41.53c-0.576,0-1.041,0.466-1.041,1.039v7.51h-7.512   c-0.572,0-1.039,0.467-1.039,1.041v2.139c0,0.574,0.467,1.039,1.039,1.039h7.512v7.514c0,0.574,0.465,1.039,1.041,1.039h2.139   c0.572,0,1.037-0.465,1.037-1.039V30.07h7.512c0.572,0,1.039-0.465,1.039-1.039v-2.139C53.257,26.318,52.79,25.852,52.218,25.852z"/><path d="M26.974,32.438c-1.58-1.119-3.016-2.76-3.041-3.264c0-0.918,0.082-1.357,2.141-2.961c2.662-2.084,4.128-4.824,4.128-7.719   c0-2.625-0.802-4.957-2.167-6.595h1.059c0.219,0,0.434-0.068,0.609-0.196l2.955-2.141c0.367-0.263,0.521-0.732,0.381-1.161   c-0.141-0.428-0.537-0.72-0.988-0.72H18.835c-1.446,0-2.915,0.255-4.357,0.751c-4.816,1.661-8.184,5.765-8.184,9.978   c0,5.969,4.624,10.493,10.805,10.635c-0.121,0.473-0.182,0.939-0.182,1.396c0,0.92,0.233,1.791,0.713,2.633c-0.056,0-0.11,0-0.17,0   c-5.892,0-11.21,2.891-13.229,7.193c-0.526,1.119-0.794,2.25-0.794,3.367c0,1.086,0.279,2.131,0.826,3.113   c1.269,2.27,3.994,4.031,7.677,4.961c1.901,0.48,3.944,0.725,6.065,0.725c1.906,0,3.723-0.246,5.403-0.732   c5.238-1.521,8.625-5.377,8.625-9.828C32.032,37.602,30.659,35.045,26.974,32.438z M10.283,42.215c0-3.107,3.947-5.832,8.446-5.832   h0.121c0.979,0.012,1.934,0.156,2.834,0.432c0.309,0.213,0.607,0.416,0.893,0.611c2.084,1.42,3.461,2.357,3.844,3.861   c0.09,0.379,0.135,0.758,0.135,1.125c0,3.869-2.885,5.83-8.578,5.83C13.663,48.242,10.283,45.596,10.283,42.215z M14.377,12.858   c0.703-0.803,1.624-1.227,2.658-1.227l0.117,0.002c2.921,0.086,5.716,3.341,6.23,7.256c0.289,2.192-0.199,4.253-1.301,5.509   c-0.705,0.805-1.613,1.229-2.689,1.229c0,0,0,0-0.002,0h-0.047c-2.861-0.088-5.716-3.467-6.227-7.377   C12.829,16.064,13.289,14.099,14.377,12.858z"/></g></symbol><symbol viewBox="0 0 56.693 56.693" id="icon-social--instagram"><path d="M43.414,4.831H13c-5.283,0-9.581,4.297-9.581,9.58v10.12v20.295c0,5.283,4.298,9.58,9.581,9.58h30.415  c5.283,0,9.58-4.297,9.58-9.58V24.53v-10.12C52.994,9.127,48.697,4.831,43.414,4.831z M46.162,10.544l1.096-0.004v1.091v7.312  l-8.375,0.027l-0.029-8.402L46.162,10.544z M21.131,24.53c1.588-2.197,4.164-3.638,7.076-3.638s5.488,1.441,7.074,3.638  c1.033,1.434,1.652,3.188,1.652,5.088c0,4.811-3.918,8.725-8.727,8.725c-4.812,0-8.726-3.914-8.726-8.725  C19.481,27.718,20.098,25.964,21.131,24.53z M48.164,44.825c0,2.621-2.131,4.75-4.75,4.75H13c-2.62,0-4.751-2.129-4.751-4.75V24.53  h7.4c-0.639,1.572-0.998,3.289-0.998,5.088c0,7.473,6.08,13.557,13.556,13.557c7.475,0,13.555-6.084,13.555-13.557  c0-1.799-0.361-3.516-1-5.088h7.402V44.825z"/></symbol><symbol viewBox="0 0 56.693 56.693" id="icon-social--pin"><path d="M30.374,4.622c-13.586,0-20.437,9.74-20.437,17.864c0,4.918,1.862,9.293,5.855,10.922c0.655,0.27,1.242,0.01,1.432-0.715  c0.132-0.5,0.445-1.766,0.584-2.295c0.191-0.717,0.117-0.967-0.412-1.594c-1.151-1.357-1.888-3.115-1.888-5.607  c0-7.226,5.407-13.695,14.079-13.695c7.679,0,11.898,4.692,11.898,10.957c0,8.246-3.649,15.205-9.065,15.205  c-2.992,0-5.23-2.473-4.514-5.508c0.859-3.623,2.524-7.531,2.524-10.148c0-2.34-1.257-4.292-3.856-4.292  c-3.058,0-5.515,3.164-5.515,7.401c0,2.699,0.912,4.525,0.912,4.525s-3.129,13.26-3.678,15.582  c-1.092,4.625-0.164,10.293-0.085,10.865c0.046,0.34,0.482,0.422,0.68,0.166c0.281-0.369,3.925-4.865,5.162-9.359  c0.351-1.271,2.011-7.859,2.011-7.859c0.994,1.896,3.898,3.562,6.986,3.562c9.191,0,15.428-8.379,15.428-19.595  C48.476,12.521,41.292,4.622,30.374,4.622z"/></symbol><symbol viewBox="0 0 56.693 56.693" id="icon-social--rss"><path d="M3.428,31.085c6.19,0,12.009,2.418,16.382,6.816c4.381,4.398,6.793,10.256,6.793,16.492h9.539  c0-18.113-14.676-32.848-32.714-32.848V31.085z M3.443,14.174c22.061,0,40.01,18.047,40.01,40.231h9.539  c0-27.445-22.229-49.77-49.549-49.77V14.174z M16.634,47.741c0,3.648-2.959,6.607-6.607,6.607S3.42,51.39,3.42,47.741  c0-3.65,2.958-6.607,6.606-6.607S16.634,44.091,16.634,47.741z"/></symbol><symbol viewBox="0 0 430.1 430.1" id="icon-social--tumblr"><g><g><path d="M252.8,351.5c-7.2-4.2-13.9-11.5-16.5-18.6c-2.7-7.1-2.3-21.5-2.3-46.4V176.2h100.3V99.5H234V0h-61.7     c-2.8,22.2-7.8,40.5-15.2,54.8c-7.4,14.4-17.1,26.7-29.3,36.9c-12.1,10.2-31.9,18.1-48.9,23.6v60.9h58.9v150.8     c0,19.7,2.1,34.7,6.2,45.1c4.2,10.3,11.6,20.1,22.4,29.3c10.8,9.1,23.8,16.2,39,21.2c15.2,4.9,26.9,7.4,46.8,7.4     c17.4,0,33.7-1.8,48.7-5.2c15-3.5,31.8-9.6,50.3-18.2v-67.9c-21.7,14.2-43.6,21.2-65.5,21.2C273.4,360.1,262.4,357.2,252.8,351.5     z" id="icon-social--tumblr-Tumblr"/></g></g></symbol><symbol viewBox="0 0 256 209" id="icon-social--twitter"> <g> <path d="M256,25.4500259 C246.580841,29.6272672 236.458451,32.4504868 225.834156,33.7202333 C236.678503,27.2198053 245.00583,16.9269929 248.927437,4.66307685 C238.779765,10.6812633 227.539325,15.0523376 215.57599,17.408298 C205.994835,7.2006971 192.34506,0.822 177.239197,0.822 C148.232605,0.822 124.716076,24.3375931 124.716076,53.3423116 C124.716076,57.4586875 125.181462,61.4673784 126.076652,65.3112644 C82.4258385,63.1210453 43.7257252,42.211429 17.821398,10.4359288 C13.3005011,18.1929938 10.710443,27.2151234 10.710443,36.8402889 C10.710443,55.061526 19.9835254,71.1374907 34.0762135,80.5557137 C25.4660961,80.2832239 17.3681846,77.9207088 10.2862577,73.9869292 C10.2825122,74.2060448 10.2825122,74.4260967 10.2825122,74.647085 C10.2825122,100.094453 28.3867003,121.322443 52.413563,126.14673 C48.0059695,127.347184 43.3661509,127.988612 38.5755734,127.988612 C35.1914554,127.988612 31.9009766,127.659938 28.694773,127.046602 C35.3777973,147.913145 54.7742053,163.097665 77.7569918,163.52185 C59.7820257,177.607983 37.1354036,186.004604 12.5289147,186.004604 C8.28987161,186.004604 4.10888474,185.75646 0,185.271409 C23.2431033,200.173139 50.8507261,208.867532 80.5109185,208.867532 C177.116529,208.867532 229.943977,128.836982 229.943977,59.4326002 C229.943977,57.1552968 229.893412,54.8901664 229.792282,52.6381454 C240.053257,45.2331635 248.958338,35.9825545 256,25.4500259"/> </g> </symbol><symbol viewBox="0 0 8 14" id="icon-write-us__btn"> <polyline points="0,0 7,7 0,13" stroke="#fff" stroke-width="2"/> </symbol></svg>