<svg xmlns="http://www.w3.org/2000/svg" width="894.438" height="894.437" viewBox="0 0 894.438 894.437" fill="#fff"><path d="M387.426 632.607H55a84.86 84.86 0 0 1-22.711-3.104v159.463c0 30.375 24.625 55 55 55h719.859c30.375 0 55-24.625 55-55V629.501a84.785 84.785 0 0 1-22.711 3.104H507.01c.019.437.033.873.033 1.313v35.926c0 16.568-13.433 30-30 30h-59.65c-16.567 0-30-13.432-30-30v-35.926c0-.44.015-.876.033-1.311zM0 220.765v326.842c0 22.273 13.249 41.441 32.289 50.09A54.76 54.76 0 0 0 55 602.607h784.438a54.788 54.788 0 0 0 22.711-4.91c19.039-8.647 32.289-27.815 32.289-50.09V220.765c0-30.376-24.625-55-55-55h-195.22v-55.293c0-33.084-26.916-60-60-60h-274c-33.084 0-60 26.916-60 60v55.293H55c-30.376 0-55 24.624-55 55zm310.218-70v-40.293h274l.006 25.293.005 15 .004 15H310.218v-15z"/></svg>