<svg viewBox="0 0 430.1 430.1" width="430.1" height="430.1" xmlns="http://www.w3.org/2000/svg"><path d="M252.8 351.5c-7.2-4.2-13.9-11.5-16.5-18.6-2.7-7.1-2.3-21.5-2.3-46.4V176.2h100.3V99.5H234V0h-61.7c-2.8 22.2-7.8 40.5-15.2 54.8-7.4 14.4-17.1 26.7-29.3 36.9-12.1 10.2-31.9 18.1-48.9 23.6v60.9h58.9V327c0 19.7 2.1 34.7 6.2 45.1 4.2 10.3 11.6 20.1 22.4 29.3 10.8 9.1 23.8 16.2 39 21.2 15.2 4.9 26.9 7.4 46.8 7.4 17.4 0 33.7-1.8 48.7-5.2 15-3.5 31.8-9.6 50.3-18.2v-67.9c-21.7 14.2-43.6 21.2-65.5 21.2-12.3.2-23.3-2.7-32.9-8.4z"/></svg>